<?xml version="1.0" standalone="no"?>
<!DOCTYPE svg PUBLIC "-//W3C//DTD SVG 20010904//EN"
 "http://www.w3.org/TR/2001/REC-SVG-20010904/DTD/svg10.dtd">
<svg version="1.0" xmlns="http://www.w3.org/2000/svg"
 width="681.000000pt" height="297.000000pt" viewBox="0 0 681.000000 297.000000"
 preserveAspectRatio="xMidYMid meet">

<g transform="translate(0.000000,297.000000) scale(0.100000,-0.100000)"
fill="#000000" stroke="none">
<path d="M1885 2840 c-33 -11 -89 -37 -125 -59 l-65 -39 -3 29 c-2 17 -9 29
-17 29 -26 0 -119 -47 -168 -83 -26 -21 -50 -37 -53 -37 -3 0 -3 14 1 30 4 19
3 30 -5 30 -25 0 -88 -42 -134 -88 -27 -28 -54 -48 -62 -45 -7 2 -24 -12 -39
-35 -36 -55 -182 -126 -315 -153 -222 -45 -304 -93 -420 -249 -19 -25 -58 -71
-87 -103 -29 -31 -57 -74 -64 -95 -11 -37 -8 -143 6 -193 6 -22 2 -27 -32 -42
-21 -9 -49 -19 -63 -22 -14 -3 -42 -13 -62 -22 l-38 -16 0 -87 0 -88 47 2 c45
1 48 -1 51 -26 3 -28 19 -36 38 -19 5 5 19 12 32 16 19 5 24 2 33 -25 l11 -31
22 19 c11 11 40 26 63 33 23 6 51 21 62 33 17 18 28 21 77 16 l56 -5 18 -70
c25 -97 75 -213 111 -258 29 -36 30 -40 18 -70 -19 -45 -16 -182 5 -244 9 -28
36 -80 58 -115 48 -73 88 -156 88 -180 0 -12 -23 -30 -70 -53 -93 -47 -128
-104 -114 -187 5 -36 7 -37 27 -23 31 22 37 19 37 -17 0 -55 12 -62 45 -28 16
16 32 30 36 30 4 0 10 -16 13 -35 8 -39 24 -44 51 -15 26 29 37 25 60 -22 25
-52 36 -56 57 -18 17 29 30 35 173 69 27 7 57 18 65 25 18 16 126 19 155 4 11
-6 30 -20 43 -31 20 -18 24 -19 32 -7 23 35 2 129 -38 173 -9 11 -34 31 -55
44 -28 17 -46 40 -63 80 -14 30 -24 57 -22 58 2 2 47 -19 102 -45 95 -47 240
-90 304 -90 16 0 61 -15 98 -32 63 -30 79 -33 179 -35 74 -2 133 -10 180 -23
48 -14 137 -25 280 -35 276 -19 330 -33 577 -149 296 -139 584 -138 712 4 32
36 36 46 36 95 0 54 -15 105 -32 105 -4 0 -8 -8 -8 -18 0 -10 -6 -26 -13 -37
-13 -17 -15 -16 -25 13 -6 18 -13 32 -15 32 -3 0 -15 -17 -27 -37 l-22 -37
-20 27 c-11 15 -24 25 -28 22 -5 -3 -14 13 -20 35 -6 22 -12 40 -14 40 -2 0
-17 -7 -32 -15 -16 -8 -41 -15 -56 -15 -26 0 -28 3 -28 44 0 72 -4 76 -57 60
-25 -8 -50 -14 -55 -14 -4 0 -8 25 -8 55 0 30 -3 55 -7 55 -5 0 -25 -5 -47 -9
-55 -13 -62 -8 -58 49 l4 50 -44 0 -44 0 4 60 4 60 -50 0 c-61 0 -75 14 -66
67 7 45 54 146 70 150 5 2 14 -9 20 -23 l9 -27 33 28 c18 15 44 47 58 71 15
25 31 43 38 41 6 -2 25 -22 41 -45 17 -22 34 -41 39 -41 5 -1 31 22 59 49 56
57 64 55 99 -14 11 -23 22 -42 23 -44 7 -8 65 30 89 59 32 37 47 34 78 -20 13
-23 28 -41 34 -41 16 0 60 51 83 98 12 23 25 42 30 42 12 0 38 -32 46 -58 4
-13 12 -21 18 -19 23 7 56 69 63 115 4 26 16 64 28 84 l21 38 -28 53 c-58 111
-163 187 -259 187 -26 0 -109 -16 -184 -35 -156 -40 -160 -40 -301 -19 -95 14
-111 19 -157 53 -73 55 -109 71 -158 71 -47 0 -130 -20 -166 -39 -19 -10 -32
-8 -79 13 -69 32 -81 32 -144 0 -27 -15 -71 -28 -97 -31 -26 -2 -63 -5 -84 -7
-35 -4 -37 -2 -51 38 -8 22 -17 48 -21 57 -5 12 3 19 35 28 126 38 141 165 34
281 -23 25 -50 61 -60 80 -10 19 -33 54 -51 77 -19 23 -34 45 -34 49 0 10 291
-2 495 -21 276 -26 454 -13 680 52 301 86 495 231 543 405 5 20 8 39 5 42 -3
3 -22 -6 -42 -19 -20 -13 -65 -31 -101 -41 -52 -13 -72 -25 -101 -56 l-36 -40
-38 16 c-51 22 -56 21 -115 -19 -58 -39 -50 -39 -115 9 -8 6 -38 1 -84 -14
-76 -24 -93 -21 -106 21 -4 10 -14 19 -23 19 -19 0 -106 -23 -134 -35 -15 -6
-18 -1 -18 33 0 23 -5 42 -13 45 -6 2 -50 1 -97 -3 -47 -4 -88 -6 -92 -3 -5 2
-11 22 -14 44 -7 44 -6 43 -134 44 l-65 0 -5 35 -5 35 -98 -1 -98 -2 6 29 c6
29 6 29 -37 29 -24 -1 -76 -7 -116 -14 -40 -7 -75 -10 -77 -7 -3 2 -5 18 -5
34 0 29 0 29 -47 22 -26 -4 -77 -18 -114 -31 -36 -13 -70 -24 -73 -24 -4 0 -6
14 -4 32 2 17 -1 33 -7 34 -5 2 -37 -6 -70 -16z m772 -1370 c-3 -11 -1 -20 4
-20 5 0 9 10 9 22 0 21 1 21 17 5 16 -16 16 -18 1 -33 -17 -18 -48 -13 -73 12
-20 20 -11 34 22 34 20 0 24 -4 20 -20z m1298 -257 c-9 -38 -14 -41 -31 -18
-13 18 -13 21 3 32 27 20 36 15 28 -14z m-1755 -23 c20 -5 55 -22 78 -37 l43
-28 5 -85 4 -85 -65 72 c-74 82 -119 113 -162 113 -21 0 -36 8 -51 30 l-23 30
68 0 c37 0 84 -5 103 -10z m1230 -28 c0 -5 -12 -19 -26 -33 -25 -24 -26 -24
-40 -5 -18 26 -18 34 4 39 30 8 62 7 62 -1z m364 -31 c-22 -37 -27 -38 -47 -7
-16 24 -16 24 21 33 20 5 39 8 40 7 2 -1 -4 -16 -14 -33z m-176 14 c6 -6 -28
-45 -38 -45 -6 0 -30 44 -30 57 0 6 61 -4 68 -12z m-757 -23 c-5 -9 -18 -25
-29 -36 -20 -17 -21 -17 -36 13 -9 16 -16 32 -16 36 0 3 20 5 45 5 41 0 45 -2
36 -18z m360 -19 c-19 -32 -41 -57 -46 -52 -2 3 -6 16 -7 29 -2 18 3 25 22 31
39 11 41 10 31 -8z m-176 -12 c0 -8 -8 -19 -18 -25 -14 -8 -20 -8 -27 4 -18
28 -11 41 18 38 15 -2 27 -9 27 -17z m-410 -21 c-25 -26 -30 -28 -38 -14 -10
18 -1 30 28 37 38 9 39 7 10 -23z m-225 -88 c17 -54 20 -76 12 -84 -18 -18
-42 52 -41 119 0 32 2 54 4 48 2 -5 13 -43 25 -83z m654 21 c-13 -32 -24 -66
-24 -75 0 -20 -16 -32 -24 -19 -11 17 50 151 69 151 1 0 -8 -26 -21 -57z
m-566 -179 c-5 -5 -43 10 -57 22 -2 2 4 13 15 25 l18 21 15 -31 c8 -17 12 -33
9 -37z m167 -14 c20 -39 21 -39 -25 -28 l-41 11 22 23 c12 13 24 24 25 24 2 0
10 -13 19 -30z m162 -96 c-4 -5 -42 10 -56 22 -2 2 7 12 20 23 l24 20 9 -30
c5 -16 6 -32 3 -35z m123 -53 c0 -5 3 -24 6 -42 l7 -34 -32 29 c-36 34 -38 43
-13 49 28 8 32 7 32 -2z m130 -183 l0 -41 -25 23 c-14 13 -25 27 -25 30 0 5
32 25 48 29 1 1 2 -18 2 -41z m144 -114 c9 -36 3 -39 -34 -18 -28 17 -29 20
-13 31 26 20 40 16 47 -13z m168 -34 c0 -11 1 -26 2 -32 1 -9 -9 -12 -29 -10
-54 7 -60 17 -24 40 43 26 49 26 51 2z m348 -4 c0 -16 -7 -26 -22 -29 -31 -8
-33 -3 -11 27 23 32 33 33 33 2z m-85 -17 c8 -26 8 -26 -40 -34 l-40 -8 29 32
c35 37 42 38 51 10z m-125 -8 c15 -29 13 -31 -30 -31 -46 0 -49 5 -17 31 28
23 34 23 47 0z"/>
<path d="M5901 2368 c-5 -13 -17 -59 -26 -103 -25 -121 -22 -116 -50 -103 -89
40 -235 -105 -235 -234 0 -114 97 -117 195 -4 l45 51 0 -40 c0 -49 23 -85 54
-85 28 0 76 36 76 56 0 17 -5 17 -29 2 -26 -16 -47 -5 -54 28 -7 40 11 167 40
279 32 122 35 168 11 173 -11 2 -21 -5 -27 -20z m-81 -253 c27 -33 -19 -127
-95 -194 -50 -44 -79 -39 -83 12 -8 101 129 241 178 182z"/>
<path d="M6295 2356 c-25 -38 -55 -217 -62 -373 -5 -129 -4 -143 11 -149 33
-13 39 12 41 153 2 111 7 158 29 241 14 57 26 114 26 128 0 31 -25 31 -45 0z"/>
<path d="M6122 2348 c-14 -14 -16 -57 -3 -77 21 -33 73 33 57 74 -7 18 -37 20
-54 3z"/>
<path d="M4011 2305 c-68 -32 -157 -123 -196 -200 -37 -73 -46 -165 -21 -214
47 -89 184 -97 291 -15 33 25 47 54 26 54 -5 0 -35 -13 -66 -30 -75 -39 -144
-42 -180 -5 -37 36 -35 110 5 194 51 108 183 217 237 197 13 -5 15 -16 10 -57
-7 -57 10 -74 43 -44 36 33 20 113 -27 134 -36 16 -62 13 -122 -14z"/>
<path d="M5045 2181 c-109 -66 -174 -253 -110 -316 44 -45 155 -24 214 39 39
41 15 50 -43 16 -56 -31 -113 -39 -134 -18 -31 31 6 147 66 211 34 36 49 34
67 -9 18 -44 39 -40 43 7 2 24 -4 44 -18 62 -25 32 -44 34 -85 8z"/>
<path d="M6511 2183 c-36 -18 -84 -77 -107 -132 -8 -18 -14 -62 -14 -96 0 -58
2 -65 31 -89 39 -33 80 -33 147 0 52 26 92 68 92 98 0 24 -13 20 -45 -14 -53
-55 -128 -76 -159 -44 -29 29 -18 50 49 94 36 24 76 55 89 71 72 86 17 161
-83 112z m64 -43 c10 -17 -21 -57 -73 -95 -52 -38 -62 -33 -36 20 28 59 92
103 109 75z"/>
<path d="M4270 2165 c-24 -29 -39 -259 -20 -309 6 -16 17 -26 29 -26 15 0 22
11 30 50 15 67 34 112 72 165 45 62 75 81 105 65 27 -15 54 -7 54 15 0 23 -37
55 -65 55 -36 0 -114 -76 -154 -147 l-31 -58 6 55 c3 30 10 70 14 88 14 55
-10 83 -40 47z"/>
<path d="M4675 2166 c-42 -19 -69 -51 -101 -119 -52 -115 -17 -217 75 -217 55
0 123 47 160 112 80 138 -6 281 -134 224z m94 -62 c40 -51 20 -137 -45 -194
-44 -38 -87 -40 -110 -5 -42 64 38 225 112 225 12 0 32 -12 43 -26z"/>
<path d="M5354 2161 c-68 -41 -114 -129 -114 -216 0 -49 4 -60 29 -86 52 -52
128 -34 199 46 61 70 77 144 46 211 -29 61 -101 81 -160 45z m100 -50 c10 -11
20 -37 23 -58 9 -71 -69 -173 -133 -173 -36 0 -58 41 -50 95 15 116 108 194
160 136z"/>
<path d="M6071 2148 c-4 -13 -16 -78 -26 -146 -19 -133 -13 -177 23 -170 14 3
18 19 23 103 3 55 12 123 19 151 7 29 10 59 7 68 -9 23 -36 20 -46 -6z"/>
</g>
</svg>
