<?xml version="1.0" standalone="no"?>
<!DOCTYPE svg PUBLIC "-//W3C//DTD SVG 20010904//EN"
 "http://www.w3.org/TR/2001/REC-SVG-20010904/DTD/svg10.dtd">
<svg version="1.0" xmlns="http://www.w3.org/2000/svg"
 width="474.000000pt" height="192.000000pt" viewBox="0 0 474.000000 192.000000"
 preserveAspectRatio="xMidYMid meet">

<g transform="translate(0.000000,192.000000) scale(0.100000,-0.100000)"
fill="#000000" stroke="none">
<path d="M4390 1508 c-129 -66 -132 -243 -5 -315 125 -71 278 46 251 191 -14
75 -97 146 -171 146 -17 0 -51 -10 -75 -22z m140 -26 c42 -21 80 -83 80 -132
0 -150 -193 -203 -267 -74 -13 21 -23 55 -23 74 0 75 73 150 145 150 16 0 46
-8 65 -18z"/>
<path d="M4380 1350 c0 -82 3 -100 15 -100 11 0 15 12 15 45 0 41 2 45 25 45
19 0 34 -12 57 -45 34 -48 69 -65 47 -22 -6 12 -20 31 -31 43 -19 21 -19 21 7
38 30 20 33 56 7 79 -13 12 -37 17 -80 17 l-62 0 0 -100z m129 66 c9 -11 10
-20 1 -35 -8 -16 -20 -21 -55 -21 -45 0 -45 0 -45 35 0 35 0 35 44 35 26 0 48
-6 55 -14z"/>
<path d="M220 865 l0 -375 95 0 95 0 1 158 1 157 18 -110 c9 -60 20 -132 24
-158 l7 -48 67 3 67 3 21 150 22 150 1 -152 1 -153 95 0 95 0 0 375 0 375
-134 0 -134 0 -11 -97 c-13 -109 -21 -156 -26 -151 -2 2 -11 58 -21 126 l-17
122 -134 0 -133 0 0 -375z"/>
<path d="M1840 866 l0 -376 105 0 105 0 0 150 0 150 48 0 c70 0 118 17 146 51
25 29 26 36 26 161 0 218 -14 231 -262 236 l-168 4 0 -376z m238 232 c7 -7 12
-41 12 -83 0 -66 -10 -95 -32 -95 -4 0 -8 43 -8 95 0 94 4 107 28 83z"/>
<path d="M1028 1110 c-44 -13 -89 -51 -104 -86 -8 -18 -14 -61 -14 -94 l0 -60
90 0 90 0 0 33 c0 54 12 108 23 104 16 -5 28 -58 22 -95 -6 -31 -14 -37 -99
-76 -51 -24 -101 -54 -110 -67 -23 -33 -23 -205 0 -238 34 -47 127 -66 184
-36 17 9 30 11 30 5 0 -6 39 -10 101 -10 l100 0 -3 264 c-3 248 -4 266 -24
293 -35 49 -98 73 -184 72 -41 0 -87 -4 -102 -9z m112 -409 c0 -71 -15 -120
-32 -103 -15 15 -13 129 2 147 22 27 30 16 30 -44z"/>
<path d="M2424 1102 c-91 -43 -107 -94 -102 -331 3 -155 5 -180 23 -211 27
-47 82 -72 169 -78 125 -8 199 28 231 111 13 36 16 76 13 228 l-3 186 -28 36
c-41 54 -79 70 -177 74 -68 3 -93 0 -126 -15z m130 -108 c11 -29 7 -382 -5
-389 -6 -4 -13 -4 -17 0 -9 9 -15 330 -7 372 6 35 19 43 29 17z"/>
<path d="M3575 1102 c-91 -44 -105 -84 -105 -306 0 -145 3 -177 19 -212 32
-69 103 -104 211 -104 139 1 210 71 210 205 l0 65 -95 0 -95 0 0 -63 c0 -39
-5 -71 -14 -83 -14 -18 -15 -18 -25 9 -6 16 -11 62 -11 103 l0 74 121 0 121 0
-4 104 c-3 91 -6 108 -30 143 -36 55 -85 77 -183 80 -62 3 -89 -1 -120 -15z
m129 -108 c3 -9 6 -36 6 -60 0 -37 -3 -44 -20 -44 -16 0 -20 7 -20 38 0 68 19
105 34 66z"/>
<path d="M4207 1100 c-30 -24 -37 -25 -37 -5 0 12 -18 15 -100 15 l-100 0 0
-310 0 -310 105 0 105 0 0 184 0 185 26 20 c15 12 37 21 50 21 24 0 24 1 24
110 0 109 0 110 -24 110 -13 0 -35 -9 -49 -20z"/>
<path d="M1373 1097 c2 -7 21 -73 41 -148 l37 -135 -36 -145 c-20 -79 -38
-152 -41 -161 -5 -16 4 -18 84 -18 l90 0 13 71 c13 73 21 74 33 4 14 -79 7
-75 118 -75 76 0 99 3 95 13 -2 6 -23 80 -46 163 l-42 150 35 142 c20 77 36
143 36 146 0 4 -40 6 -89 6 -99 0 -93 4 -107 -75 -12 -72 -21 -71 -34 3 l-13
72 -90 0 c-68 0 -88 -3 -84 -13z"/>
<path d="M2790 1103 c0 -16 71 -569 75 -590 5 -22 10 -23 114 -23 l109 0 12
73 c22 133 26 140 34 62 3 -38 9 -85 12 -103 l6 -33 111 3 111 3 32 270 c18
149 35 287 39 308 l5 37 -89 0 c-68 0 -90 -3 -94 -14 -3 -8 -12 -61 -19 -117
-14 -115 -21 -105 -33 49 l-7 82 -88 0 -87 0 -12 -88 c-6 -49 -11 -100 -11
-115 0 -14 -4 -28 -9 -31 -4 -3 -14 48 -21 114 l-12 120 -89 0 c-49 0 -89 -3
-89 -7z"/>
</g>
</svg>
